<svg width="16" height="14" viewBox="0 0 16 14" fill="none" xmlns="http://www.w3.org/2000/svg">
<path d="M12.7064 1.91638C13.1014 1.91412 13.4839 2.05479 13.7833 2.31244C13.9515 2.45384 14.0901 2.62705 14.1912 2.82214C14.2923 3.01724 14.3539 3.23037 14.3725 3.44933C14.391 3.66828 14.3662 3.88874 14.2993 4.09806C14.2325 4.30739 14.125 4.50145 13.9829 4.66913L8.21559 11.4872C8.0578 11.6737 7.86128 11.8236 7.6397 11.9265C7.41812 12.0293 7.1768 12.0827 6.9325 12.0829C6.53582 12.0815 6.15313 11.9361 5.85562 11.6738L4.57908 10.5936L11.4135 2.50883C11.5716 2.32044 11.7697 2.16955 11.9933 2.06709C12.2169 1.96462 12.4605 1.91315 12.7064 1.91638ZM12.7064 0.27979C12.224 0.278933 11.7472 0.383679 11.3095 0.586677C10.8718 0.789675 10.4839 1.086 10.173 1.45486L2.27148 10.8031L4.80166 12.9372C5.13349 13.2182 5.51748 13.4309 5.93165 13.5632C6.34582 13.6956 6.78202 13.7449 7.21529 13.7084C7.64855 13.6719 8.07036 13.5504 8.45656 13.3506C8.84277 13.1509 9.18577 12.8769 9.46595 12.5444L15.2202 5.72637C15.5006 5.39415 15.7127 5.00995 15.8446 4.59571C15.9764 4.18147 16.0253 3.74532 15.9885 3.31217C15.9517 2.87902 15.83 2.45736 15.6302 2.07128C15.4304 1.68521 15.1565 1.34228 14.8242 1.06208C14.2325 0.55991 13.4824 0.282851 12.7064 0.27979Z" fill="#0DB14B" style="mix-blend-mode:luminosity"/>
<path d="M3.29863 5.66727C3.69362 5.66501 4.0761 5.80568 4.37551 6.06332L9.28529 10.2006L8.20514 11.4804C8.06284 11.6502 7.88826 11.79 7.6915 11.8917C7.49474 11.9935 7.27974 12.0551 7.05897 12.0731C6.8382 12.091 6.61607 12.065 6.40545 11.9964C6.19484 11.9278 5.99994 11.8181 5.83208 11.6736L2.23157 8.61968C1.97136 8.39803 1.78531 8.10198 1.69846 7.77139C1.61161 7.44079 1.62813 7.09153 1.74581 6.77061C1.86348 6.44969 2.07665 6.17252 2.35661 5.97643C2.63658 5.78033 2.96991 5.67472 3.31172 5.67381L3.29863 5.66727ZM3.31172 4.03722C2.82975 4.03639 2.35346 4.14117 1.91633 4.34419C1.4792 4.5472 1.09186 4.84351 0.781548 5.21229C0.500998 5.54431 0.288608 5.92835 0.156511 6.34246C0.024413 6.75658 -0.0248035 7.19267 0.0116717 7.62581C0.0481468 8.05895 0.169599 8.48067 0.369091 8.86686C0.568584 9.25305 0.842207 9.59616 1.17433 9.87658L4.80102 12.937C5.13285 13.218 5.51685 13.4307 5.93101 13.5631C6.34518 13.6954 6.78139 13.7447 7.21465 13.7082C7.64791 13.6718 8.06973 13.5502 8.45593 13.3504C8.84213 13.1507 9.18514 12.8767 9.46531 12.5442L11.5994 10.0141L5.43275 4.79987C4.83692 4.29382 4.08036 4.01649 3.29863 4.01758L3.31172 4.03722Z" fill="#0DB14B" style="mix-blend-mode:luminosity"/>
<path d="M10.3457 8.96054L9.27867 10.2011L6.72559 8.06369L7.80246 6.81006L10.3457 8.96054Z" fill="url(#paint0_linear_1877_8861)" style="mix-blend-mode:luminosity"/>
<path d="M4.57555 10.6066L3.3252 9.5526L5.48223 6.99951L6.73258 8.06984L4.57555 10.6066Z" fill="url(#paint1_linear_1877_8861)" style="mix-blend-mode:luminosity"/>
<path d="M7.80217 6.80979L6.54199 5.74928L8.71212 3.18311L9.95266 4.22725L7.80217 6.80979Z" fill="url(#paint2_linear_1877_8861)" style="mix-blend-mode:luminosity"/>
<defs>
<linearGradient id="paint0_linear_1877_8861" x1="7.27548" y1="7.4156" x2="9.56999" y2="9.40897" gradientUnits="userSpaceOnUse">
<stop stop-color="#0DB14B"/>
<stop offset="1" stop-color="#2B8333"/>
</linearGradient>
<linearGradient id="paint1_linear_1877_8861" x1="6.10413" y1="7.48165" x2="4.03816" y2="9.76195" gradientUnits="userSpaceOnUse">
<stop offset="0.03" stop-color="#2B8333"/>
<stop offset="0.12" stop-color="#1F953C"/>
<stop offset="0.24" stop-color="#15A545"/>
<stop offset="0.37" stop-color="#0FAE49"/>
<stop offset="0.55" stop-color="#0DB14B"/>
<stop offset="0.74" stop-color="#1B9C40"/>
<stop offset="1" stop-color="#2B8333"/>
</linearGradient>
<linearGradient id="paint2_linear_1877_8861" x1="-165.853" y1="97.4846" x2="-187.361" y2="122.763" gradientUnits="userSpaceOnUse">
<stop stop-color="#0DB14B"/>
<stop offset="1" stop-color="#2B8333"/>
</linearGradient>
</defs>
</svg>
